<svg xmlns="http://www.w3.org/2000/svg" xmlns:xlink="http://www.w3.org/1999/xlink" id="Group_329" data-name="Group 329" width="171.099" height="91.683" viewBox="0 0 171.099 91.683"><defs><clipPath id="clip-path"><rect id="Rectangle_65" data-name="Rectangle 65" width="171.099" height="91.683" fill="#374040"></rect></clipPath></defs><g id="Group_329-2" data-name="Group 329" clip-path="url(#clip-path)"><path id="Path_302" data-name="Path 302" d="M13.139,56.1a16.7,16.7,0,0,1-4.976.84c-2.722,0-4.69-.686-6.061-2.013A7.219,7.219,0,0,1,0,49.5c.023-4.955,3.628-7.786,8.516-7.786a10.267,10.267,0,0,1,4.136.73l-.708,2.7a8.261,8.261,0,0,0-3.472-.641c-2.81,0-4.933,1.593-4.933,4.821,0,3.075,1.924,4.889,4.689,4.889a4.5,4.5,0,0,0,1.658-.222V50.876h-2.3V48.244h5.552Z" transform="translate(0 -13.353)" fill="#374040"></path><path id="Path_303" data-name="Path 303" d="M23.162,41.948h3.383V54.024h5.928v2.831H23.162Z" transform="translate(-7.413 -13.426)" fill="#374040"></path><path id="Path_304" data-name="Path 304" d="M42.974,53.028l-1.062,3.827h-3.5l4.558-14.908H47.4l4.621,14.908H48.391l-1.15-3.827Zm3.782-2.521-.929-3.164c-.266-.885-.531-1.99-.752-2.875H45.03c-.222.885-.443,2.013-.686,2.875l-.885,3.164Z" transform="translate(-12.296 -13.426)" fill="#374040"></path><path id="Path_305" data-name="Path 305" d="M61.191,53.268a8.6,8.6,0,0,0,3.738.929c1.548,0,2.366-.642,2.366-1.615,0-.929-.708-1.46-2.5-2.1-2.477-.863-4.093-2.234-4.093-4.4,0-2.544,2.123-4.491,5.641-4.491a9.136,9.136,0,0,1,3.8.753l-.753,2.72a7.083,7.083,0,0,0-3.119-.708c-1.46,0-2.168.664-2.168,1.438,0,.951.84,1.371,2.765,2.1,2.633.973,3.872,2.344,3.872,4.445,0,2.5-1.925,4.622-6.016,4.622a9.748,9.748,0,0,1-4.225-.906Z" transform="translate(-19.366 -13.311)" fill="#374040"></path><path id="Path_306" data-name="Path 306" d="M12.938,86.456c-.066-1.791-.133-3.959-.133-6.126H12.74c-.464,1.9-1.083,4.025-1.658,5.773L9.267,91.92H6.636L5.044,86.146c-.488-1.747-1-3.87-1.35-5.817H3.65c-.088,2.013-.156,4.313-.267,6.171l-.264,5.662H0L.951,77.255h4.49L6.9,82.231c.465,1.726.929,3.583,1.262,5.331h.066c.42-1.725.928-3.693,1.416-5.353l1.592-4.954h4.4l.819,14.908h-3.3Z" transform="translate(0 -24.727)" fill="#374040"></path><path id="Path_307" data-name="Path 307" d="M31.881,77.255v8.583c0,2.565.972,3.87,2.7,3.87,1.769,0,2.744-1.239,2.744-3.87V77.255h3.362v8.361c0,4.6-2.322,6.79-6.215,6.79-3.76,0-5.973-2.079-5.973-6.835V77.255Z" transform="translate(-9.121 -24.727)" fill="#374040"></path><path id="Path_308" data-name="Path 308" d="M50.553,88.576a8.6,8.6,0,0,0,3.738.929c1.548,0,2.366-.642,2.366-1.615,0-.929-.708-1.46-2.5-2.1-2.477-.864-4.093-2.234-4.093-4.4,0-2.544,2.123-4.49,5.641-4.49a9.121,9.121,0,0,1,3.8.753l-.751,2.72a7.083,7.083,0,0,0-3.119-.708c-1.46,0-2.168.663-2.168,1.438,0,.951.84,1.371,2.765,2.1,2.633.973,3.872,2.344,3.872,4.445,0,2.5-1.925,4.623-6.016,4.623a9.757,9.757,0,0,1-4.225-.907Z" transform="translate(-15.961 -24.612)" fill="#374040"></path><path id="Path_309" data-name="Path 309" d="M77.149,85.859H71.664V89.4h6.127v2.765H68.28V77.255h9.2V80.02H71.664v3.1h5.485Z" transform="translate(-21.854 -24.727)" fill="#374040"></path><path id="Path_310" data-name="Path 310" d="M89,77.255v8.583c0,2.565.972,3.87,2.7,3.87,1.769,0,2.744-1.239,2.744-3.87V77.255H97.8v8.361c0,4.6-2.322,6.79-6.215,6.79-3.76,0-5.973-2.079-5.973-6.835V77.255Z" transform="translate(-27.403 -24.727)" fill="#374040"></path><path id="Path_311" data-name="Path 311" d="M120,86.456c-.066-1.791-.133-3.959-.133-6.126H119.8c-.464,1.9-1.083,4.025-1.658,5.773l-1.814,5.818H113.7l-1.592-5.773c-.488-1.747-1-3.87-1.35-5.817h-.044c-.088,2.013-.156,4.313-.267,6.171l-.264,5.662h-3.119l.951-14.908h4.49l1.46,4.976c.465,1.726.929,3.583,1.262,5.331h.066c.42-1.725.928-3.693,1.416-5.353l1.592-4.954h4.4l.819,14.908h-3.3Z" transform="translate(-34.267 -24.727)" fill="#374040"></path><path id="Path_312" data-name="Path 312" d="M0,112.559H9.3v2.764H3.383v3.406H8.929v2.743H3.383v5.994H0Z" transform="translate(0 -36.026)" fill="#374040"></path><path id="Path_313" data-name="Path 313" d="M18.151,112.705a29.661,29.661,0,0,1,4.49-.309c2.211,0,3.76.332,4.822,1.172a3.784,3.784,0,0,1,1.371,3.118,3.958,3.958,0,0,1-2.633,3.672v.066a3.757,3.757,0,0,1,1.991,2.786c.465,1.682.929,3.628,1.217,4.2H25.959a18.66,18.66,0,0,1-1.04-3.472c-.4-1.858-1.039-2.366-2.41-2.389H21.49v5.861H18.151Zm3.339,6.414h1.328c1.68,0,2.676-.841,2.676-2.146,0-1.371-.929-2.057-2.477-2.079a8.414,8.414,0,0,0-1.526.111Z" transform="translate(-5.81 -35.974)" fill="#374040"></path><path id="Path_314" data-name="Path 314" d="M40.7,123.64l-1.062,3.827h-3.5L40.7,112.559h4.424l4.622,14.908H46.115l-1.15-3.827Zm3.782-2.521-.929-3.164c-.266-.885-.531-1.99-.752-2.875h-.044c-.222.885-.443,2.013-.686,2.875l-.885,3.164Z" transform="translate(-11.567 -36.026)" fill="#374040"></path><path id="Path_315" data-name="Path 315" d="M61.855,112.559v8.581c0,2.567.972,3.872,2.7,3.872,1.77,0,2.742-1.239,2.742-3.872v-8.581h3.362v8.36c0,4.6-2.322,6.79-6.215,6.79-3.76,0-5.973-2.079-5.973-6.834v-8.316Z" transform="translate(-18.714 -36.026)" fill="#374040"></path><path id="Path_316" data-name="Path 316" d="M89.272,121.162H83.787V124.7h6.127v2.765H80.4V112.559h9.2v2.764H83.787v3.1h5.485Z" transform="translate(-25.734 -36.027)" fill="#374040"></path><path id="Path_317" data-name="Path 317" d="M97.774,127.467V112.56h3.936l3.1,5.463a43.229,43.229,0,0,1,2.433,5.109h.066a55.53,55.53,0,0,1-.288-6.215V112.56h3.1v14.907h-3.539l-3.185-5.751a55.7,55.7,0,0,1-2.588-5.263l-.067.021c.09,1.969.133,4.07.133,6.5v4.49Z" transform="translate(-31.294 -36.027)" fill="#374040"></path><path id="Path_318" data-name="Path 318" d="M123.277,123.64l-1.062,3.827h-3.5l4.558-14.908H127.7l4.622,14.908H128.7l-1.151-3.827Zm3.782-2.521-.929-3.164c-.265-.885-.531-1.99-.752-2.875h-.045c-.22.885-.441,2.013-.685,2.875l-.885,3.164Z" transform="translate(-37.998 -36.026)" fill="#374040"></path><path id="Path_319" data-name="Path 319" d="M143.851,112.559v8.581c0,2.567.972,3.872,2.7,3.872,1.77,0,2.742-1.239,2.742-3.872v-8.581h3.362v8.36c0,4.6-2.322,6.79-6.215,6.79-3.76,0-5.973-2.079-5.973-6.834v-8.316Z" transform="translate(-44.959 -36.026)" fill="#374040"></path><path id="Path_320" data-name="Path 320" d="M169.62,67.61c-.573-.009-2.447-.154-2.978-.228A23.511,23.511,0,0,1,146.525,44.2c0-.264,0-.528.014-.79h-18.67v-2.04A41.489,41.489,0,0,1,138.3,13.8,42.271,42.271,0,0,1,164.058.029a3.014,3.014,0,0,1,3.423,2.99,40.365,40.365,0,0,1-11.442,27.738,19.338,19.338,0,0,0,11.173,32.586c.36.051,2.069.184,2.438.189h.622c.339-.005,2.047-.138,2.407-.188a19.339,19.339,0,0,0,11.175-32.586A40.362,40.362,0,0,1,172.412,3.018a3.013,3.013,0,0,1,3.421-2.99A42.274,42.274,0,0,1,201.591,13.8a41.492,41.492,0,0,1,10.434,27.569v2.04h-18.67c.009.262.014.526.014.79A23.511,23.511,0,0,1,173.25,67.382c-.53.075-2.4.22-2.947.228Zm23.242-28.285h15.03A37.449,37.449,0,0,0,176.515,4.264,36.384,36.384,0,0,0,186.786,27.92a23.285,23.285,0,0,1,6.076,11.406m-60.861,0h15.03a23.29,23.29,0,0,1,6.076-11.406A36.381,36.381,0,0,0,163.377,4.264,37.45,37.45,0,0,0,132,39.326" transform="translate(-40.926 0)" fill="#ff6e32"></path></g></svg>